<svg width="24" height="24" viewBox="0 0 24 24" fill="none" xmlns="http://www.w3.org/2000/svg">
<path d="M6.49999 10C6.27699 10 6.06299 10.034 5.84999 10.065C5.91899 9.833 5.98999 9.597 6.10399 9.385C6.21799 9.077 6.39599 8.81 6.57299 8.541C6.72099 8.25 6.98199 8.053 7.17399 7.804C7.37499 7.562 7.64899 7.401 7.86599 7.2C8.07899 6.99 8.35799 6.885 8.57999 6.737C8.81199 6.604 9.01399 6.457 9.22999 6.387C9.43799 6.301 9.61999 6.227 9.76899 6.165C10.071 6.04 10.243 5.968 10.243 5.968L9.75799 4.03C9.75799 4.03 9.53999 4.082 9.16099 4.174C8.96999 4.222 8.73699 4.278 8.47199 4.345C8.20099 4.395 7.91199 4.532 7.58999 4.657C7.27199 4.799 6.90399 4.895 6.56199 5.123C6.21799 5.341 5.82099 5.523 5.47099 5.815C5.13199 6.116 4.72299 6.377 4.42099 6.76C4.09099 7.118 3.76499 7.494 3.51199 7.922C3.21899 8.33 3.01999 8.778 2.80999 9.221C2.61999 9.664 2.46699 10.117 2.34199 10.557C2.10499 11.439 1.99899 12.277 1.95799 12.994C1.92399 13.712 1.94399 14.309 1.98599 14.741C2.00099 14.945 2.02899 15.143 2.04899 15.28C2.06599 15.389 2.07399 15.448 2.07399 15.448L2.09999 15.442C2.53499 17.474 4.33799 19 6.49999 19C8.98499 19 11 16.985 11 14.5C11 12.015 8.98499 10 6.49999 10ZM17.5 10C17.277 10 17.063 10.034 16.85 10.065C16.919 9.833 16.99 9.597 17.104 9.385C17.218 9.077 17.396 8.81 17.573 8.541C17.721 8.25 17.982 8.053 18.174 7.804C18.375 7.562 18.649 7.401 18.866 7.2C19.079 6.99 19.358 6.885 19.58 6.737C19.812 6.604 20.014 6.457 20.23 6.387C20.438 6.301 20.62 6.227 20.769 6.165C21.071 6.04 21.243 5.968 21.243 5.968L20.758 4.03C20.758 4.03 20.54 4.082 20.161 4.174C19.97 4.222 19.737 4.278 19.472 4.345C19.201 4.395 18.912 4.532 18.59 4.657C18.273 4.8 17.904 4.895 17.562 5.124C17.218 5.342 16.821 5.524 16.471 5.816C16.132 6.117 15.723 6.378 15.421 6.76C15.091 7.118 14.765 7.494 14.512 7.922C14.219 8.33 14.02 8.778 13.81 9.221C13.62 9.664 13.467 10.117 13.342 10.557C13.105 11.439 12.999 12.277 12.958 12.994C12.924 13.712 12.944 14.309 12.986 14.741C13.001 14.945 13.029 15.143 13.049 15.28C13.066 15.389 13.074 15.448 13.074 15.448L13.1 15.442C13.535 17.474 15.338 19 17.5 19C19.985 19 22 16.985 22 14.5C22 12.015 19.985 10 17.5 10Z" fill="white"/>
</svg>
